#!OML:ASF H:\ManfredObstacles\Project 1\Capture day 2\Session 1\male.ASF
:FULLY-SPECIFIED
:DEGREES
729
root 1.76727 15.9857 -1.52169 -174.389 -3.07126 179.811
lowerback -4.47791 -1.30694 -2.75998
upperback 1.91587 -1.63274 1.16006
thorax 4.60806 -0.916177 2.61201
lowerneck -35.2189 0.581846 4.6481
upperneck 39.664 0.780544 -1.50249
head 22.5039 1.48131 -1.121
rclavicle -4.64659e-015 -6.16232e-015
rhumerus -36.5145 -22.3847 -71.9159
rradius 27.8467
rwrist 34.1449
rhand -1.98966 -6.86049
rfingers 7.12502
rthumb 23.6833 -35.4215
lclavicle -4.64659e-015 -6.16232e-015
lhumerus -25.1722 9.07086 85.3688
lradius 26.6145
lwrist -42.4858
lhand 2.57093 6.18952
lfingers 7.12502
lthumb 28.0505 34.1126
rfemur -17.3134 2.52789 25.6576
rtibia 24.8709
rfoot -8.17541 -14.4441
rtoes -17.5955
lfemur -18.6447 0.528053 -18.9164
ltibia 68.047
lfoot 10.8628 14.9376
ltoes -9.97283
730
root 1.7781 15.977 -1.61615 -174.478 -2.75089 179.851
lowerback -4.39956 -1.18486 -2.64263
upperback 1.934 -1.47671 1.1025
thorax 4.56677 -0.834083 2.50108
lowerneck -35.1565 0.618526 4.68625
upperneck 39.671 0.877066 -1.5964
head 22.4976 1.51012 -1.1504
rclavicle -5.51627e-015 5.96354e-015
rhumerus -36.0404 -22.1671 -72.3051
rradius 27.8036
rwrist 34.2249
rhand -1.98255 -6.83837
rfingers 7.12502
rthumb 23.6901 -35.3985
lclavicle -5.51627e-015 5.96354e-015
lhumerus -25.2558 9.17107 85.2031
lradius 26.6335
lwrist -42.5316
lhand 2.6451 6.10859
lfingers 7.12502
lthumb 28.1214 34.0201
rfemur -16.8867 2.51545 25.8044
rtibia 24.9871
rfoot -8.55645 -14.3302
rtoes -17.4559
lfemur -19.6236 0.322254 -19.0451
ltibia 68.0853
lfoot 10.2092 16.1244
ltoes -10.2539
731
root 1.78815 15.9671 -1.71062 -174.563 -2.44142 179.905
lowerback -4.32156 -1.06947 -2.50286
upperback 1.9491 -1.33085 1.04429
thorax 4.52351 -0.756332 2.37566
lowerneck -35.0852 0.659767 4.73127
upperneck 39.6741 0.977016 -1.69025
head 22.4865 1.54126 -1.17995
rclavicle 1.01629e-014 -5.56597e-015
rhumerus -35.5673 -21.9086 -72.7322
rradius 27.7776
rwrist 34.2235
rhand -1.97566 -6.83096
rfingers 7.12502
rthumb 23.6967 -35.3902
lclavicle 1.01629e-014 -5.56597e-015
lhumerus -25.3447 9.25179 85.023
lradius 26.6228
lwrist -42.6409
lhand 2.70865 6.00205
lfingers 7.12502
lthumb 28.1821 33.9035
rfemur -16.4686 2.48547 25.9585
rtibia 25.1143
rfoot -8.95484 -14.1919
rtoes -17.3073
lfemur -20.594 0.076905 -19.1431
ltibia 68.0181
lfoot 9.63843 17.3903
ltoes -10.3995
732
root 1.79745 15.956 -1.80525 -174.638 -2.13372 179.967
lowerback -4.26005 -0.958163 -2.36001
upperback 1.96595 -1.19059 0.995752
thorax 4.49294 -0.681687 2.25751
lowerneck -35.0269 0.703631 4.77626
upperneck 39.6718 1.08333 -1.7962
head 22.4758 1.57172 -1.21465
rclavicle -5.7896e-015 3.97569e-016
rhumerus -35.0885 -21.5794 -73.1896
rradius 27.7769
rwrist 34.1467
rhand -1.95561 -6.84353
rfingers 7.12502
rthumb 23.716 -35.4003
lclavicle -5.7896e-015 3.97569e-016
lhumerus -25.4364 9.3082 84.8555
lradius 26.5914
lwrist -42.7669
lhand 2.75817 5.91223
lfingers 7.12502
lthumb 28.2294 33.8059
rfemur -16.0644 2.44827 26.1129
rtibia 25.2492
rfoot -9.35748 -14.0354
rtoes -17.1318
lfemur -21.5563 -0.203577 -19.2135
ltibia 67.8425
lfoot 9.13598 18.682
ltoes -10.4389
733
root 1.80602 15.9442 -1.90018 -174.706 -1.82242 180.037
lowerback -4.19592 -0.846889 -2.20699
upperback 1.97465 -1.0509 0.949241
thorax 4.45323 -0.606841 2.13555
lowerneck -34.9622 0.749401 4.82824
upperneck 39.6713 1.19251 -1.90718
head 22.4653 1.60411 -1.25232
rclavicle -5.29264e-015 8.84592e-015
rhumerus -34.6311 -21.1963 -73.6665
rradius 27.8011
rwrist 34.0246
rhand -1.92034 -6.86513
rfingers 7.12502
rthumb 23.7498 -35.4175
lclavicle -5.29264e-015 8.84592e-015
lhumerus -25.5528 9.33171 84.6875
lradius 26.5398
lwrist -42.9219
lhand 2.76672 5.82931
lfingers 7.12502
lthumb 28.2376 33.7216
rfemur -15.6695 2.40702 26.2664
rtibia 25.3901
rfoot -9.76961 -13.8645
rtoes -16.9084
lfemur -22.5005 -0.515367 -19.2529
ltibia 67.5517
lfoot 8.68406 19.9494
ltoes -10.3235
734
root 1.81403 15.9318 -1.99554 -174.766 -1.50207 180.111
lowerback -4.13844 -0.733553 -2.05424
upperback 1.98329 -0.908437 0.908829
thorax 4.41821 -0.530835 2.01996
lowerneck -34.9101 0.788888 4.86317
upperneck 39.6653 1.29908 -2.01843
head 22.4544 1.63172 -1.28825
rclavicle -8.32411e-015 -1.39149e-015
rhumerus -34.1772 -20.7659 -74.1564
rradius 27.8429
rwrist 33.8581
rhand -1.89737 -6.88011
rfingers 7.12502
rthumb 23.7718 -35.4296
lclavicle -8.32411e-015 -1.39149e-015
lhumerus -25.6819 9.34306 84.5296
lradius 26.4763
lwrist -43.1083
lhand 2.77688 5.77135
lfingers 7.12502
lthumb 28.2473 33.6621
rfemur -15.2879 2.36157 26.4166
rtibia 25.5389
rfoot -10.1763 -13.6867
rtoes -16.6643
lfemur -23.4241 -0.843911 -19.2616
ltibia 67.1442
lfoot 8.24267 21.1467
ltoes -10.1515
735
root 1.8216 15.9191 -2.09139 -174.818 -1.17293 180.179
lowerback -4.07686 -0.616577 -1.91209
upperback 1.98877 -0.760574 0.873015
thorax 4.37854 -0.452482 1.91532
lowerneck -34.8833 0.827057 4.89356
upperneck 39.6598 1.40448 -2.13436
head 22.4513 1.65666 -1.32658
rclavicle 3.90115e-015 -1.68967e-015
rhumerus -33.7362 -20.3024 -74.6458
rradius 27.9047
rwrist 33.671
rhand -1.87514 -6.87387
rfingers 7.12502
rthumb 23.7931 -35.4206
lclavicle 3.90115e-015 -1.68967e-015
lhumerus -25.821 9.35745 84.378
lradius 26.3901
lwrist -43.3281
lhand 2.75856 5.71231
lfingers 7.12502
lthumb 28.2298 33.6059
rfemur -14.9179 2.32224 26.5546
rtibia 25.6958
rfoot -10.5618 -13.5156
rtoes -16.4025
lfemur -24.3189 -1.18739 -19.2465
ltibia 66.616
lfoot 7.81299 22.2579
ltoes -9.92841
736
root 1.82897 15.9059 -2.18796 -174.862 -0.837522 180.237
lowerback -4.01118 -0.498437 -1.77782
upperback 1.98365 -0.610079 0.830665
thorax 4.32637 -0.372652 1.80833
lowerneck -34.8415 0.862885 4.91363
upperneck 39.6507 1.50837 -2.23724
head 22.4413 1.68172 -1.35625
rclavicle -1.83876e-015 1.68967e-015
rhumerus -33.3253 -19.8274 -75.1388
rradius 27.9853
rwrist 33.4786
rhand -1.84494 -6.85972
rfingers 7.12502
rthumb 23.8221 -35.4027
lclavicle -1.83876e-015 1.68967e-015
lhumerus -25.9817 9.38817 84.2087
lradius 26.2828
lwrist -43.5856
lhand 2.75209 5.67165
lfingers 7.12502
lthumb 28.2236 33.5663
rfemur -14.5579 2.28806 26.6775
rtibia 25.8604
rfoot -10.9336 -13.3532
rtoes -16.157
lfemur -25.1792 -1.53132 -19.2111
ltibia 65.968
lfoot 7.39889 23.2628
ltoes -9.71226
737
root 1.83627 15.8925 -2.28541 -174.9 -0.503772 180.281
lowerback -3.9434 -0.383034 -1.66506
upperback 1.96627 -0.461499 0.786088
thorax 4.26151 -0.294064 1.7107
lowerneck -34.7978 0.878214 4.89789
upperneck 39.6743 1.598 -2.31054
head 22.4531 1.70387 -1.36697
rclavicle 1.0312e-015 -3.08116e-015
rhumerus -32.9392 -19.331 -75.6314
rradius 28.0597
rwrist 33.2702
rhand -1.83224 -6.83935
rfingers 7.12502
rthumb 23.8343 -35.3807
lclavicle 1.0312e-015 -3.08116e-015
lhumerus -26.1736 9.44678 84.0224
lradius 26.1563
lwrist -43.8569
lhand 2.76054 5.62933
lfingers 7.12502
lthumb 28.2317 33.5226
rfemur -14.2019 2.26408 26.7826
rtibia 26.0302
rfoot -11.3041 -13.2047
rtoes -15.9135
lfemur -26.001 -1.88205 -19.158
ltibia 65.2002
lfoot 7.00824 24.1786
ltoes -9.55294
